<svg width="14" height="39" viewBox="0 0 14 39" fill="none" xmlns="http://www.w3.org/2000/svg">
<path d="M13.281 32.1665C13.281 31.9859 13.159 31.818 13.144 31.6442C13.128 31.4703 13.11 31.2972 13.08 31.1218C13.049 30.9465 13.179 30.742 13.134 30.5704C13.095 30.3286 12.969 30.3465 12.937 30.104C12.905 29.8615 13.132 29.8331 13.101 29.5921C13.069 29.3511 12.769 29.3906 12.738 29.1496C12.706 28.9086 12.704 28.9078 12.671 28.6668C12.639 28.4258 12.855 28.3967 12.821 28.1557C12.786 27.9146 12.73 27.9214 12.698 27.6796C12.665 27.4378 12.725 27.4296 12.693 27.1871C12.661 26.9446 12.45 26.9722 12.418 26.7297C12.386 26.4872 12.642 26.4528 12.609 26.2073C12.577 25.9618 12.329 25.9969 12.297 25.7536C12.265 25.5104 12.371 25.4962 12.339 25.2529C12.307 25.0097 12.29 25.0119 12.258 24.7694C12.226 24.5269 12.265 24.5217 12.233 24.2784C12.201 24.0351 12.374 24.0135 12.342 23.771C12.31 23.5285 12.311 23.5285 12.279 23.286C12.247 23.0434 11.935 23.0852 11.906 22.8435C11.877 22.6017 11.906 22.5972 11.874 22.3547C11.843 22.1122 12.036 22.0876 12.004 21.8458C11.972 21.604 11.924 21.61 11.892 21.3682C11.86 21.1265 11.772 21.1376 11.743 20.8959C11.714 20.6541 11.924 20.6257 11.892 20.384C11.86 20.1422 11.668 20.1668 11.636 19.9251C11.604 19.6833 11.481 19.7012 11.45 19.4565C11.418 19.2117 11.726 19.1736 11.694 18.9341C11.662 18.6946 11.672 18.6894 11.64 18.4468C11.608 18.2043 11.336 18.2394 11.303 17.9991C11.271 17.7588 11.401 17.7387 11.369 17.4947C11.337 17.2507 11.244 17.2634 11.212 17.0194C11.18 16.7753 11.206 16.7724 11.174 16.5291C11.142 16.2858 11.108 16.2903 11.076 16.0478C11.044 15.8053 11.171 15.7881 11.139 15.5449C11.106 15.3016 10.994 15.3165 10.963 15.074C10.932 14.8315 10.925 14.8322 10.893 14.589C10.861 14.3457 10.908 14.3405 10.876 14.0972C10.844 13.854 11 13.8338 10.968 13.5906C10.936 13.3473 10.914 13.3503 10.882 13.107C10.85 12.8638 10.783 12.872 10.751 12.6287C10.719 12.3854 10.597 12.4004 10.565 12.1564C10.533 11.9124 10.696 11.8907 10.664 11.6475C10.632 11.4042 10.634 11.4034 10.602 11.1602C10.57 10.9169 10.557 10.9184 10.527 10.6752C10.497 10.4319 10.461 10.4364 10.429 10.1931C10.397 9.94981 10.493 9.93641 10.461 9.69321C10.429 9.44991 10.312 9.46412 10.281 9.22012C10.25 8.97612 10.077 8.99621 10.045 8.75441C10.013 8.51271 10.023 8.50972 9.99098 8.26572C9.95898 8.02172 9.99697 8.01722 9.96498 7.77322C9.93298 7.52922 10.07 7.51132 10.04 7.26802C10.01 7.02472 9.88598 7.04412 9.85398 6.79942C9.82198 6.55462 9.79599 6.56062 9.76399 6.31882C9.73199 6.07712 10.019 6.03752 9.98799 5.79652C9.95599 5.55552 9.83797 5.57262 9.80297 5.32492C9.76697 5.07722 9.58398 5.10102 9.55198 4.86002C9.51998 4.61902 9.80798 4.57872 9.77598 4.33772C9.74398 4.09662 9.67797 4.10262 9.64598 3.85942C9.61398 3.61612 9.45198 3.63552 9.42198 3.39302C9.39198 3.15052 9.36398 3.15122 9.33198 2.90652C9.29998 2.66172 9.52099 2.63261 9.48799 2.38861C9.45599 2.14461 9.35498 2.15731 9.32298 1.91331C9.29098 1.66921 9.18498 1.68121 9.15298 1.43641C9.12098 1.19171 9.27298 1.17152 9.24098 0.926815C9.20898 0.682015 9.07197 0.702915 9.03997 0.455215C9.03097 0.400515 9.03398 0.344816 9.04698 0.291016C7.33998 0.314916 5.63198 0.308916 3.92398 0.291016C3.92798 0.330016 3.92798 0.369215 3.92398 0.408215C3.89998 0.649215 3.92398 0.651415 3.90298 0.892515C3.88198 1.13352 3.61099 1.10662 3.58699 1.34762C3.56299 1.58872 3.57798 1.59021 3.55398 1.83121C3.52998 2.07221 3.56998 2.07742 3.54598 2.31842C3.52298 2.55952 3.62098 2.56992 3.59498 2.81242C3.56898 3.05492 3.63998 3.06171 3.61598 3.30341C3.59198 3.54521 3.53799 3.54071 3.51399 3.78321C3.48999 4.02581 3.47298 4.02352 3.44898 4.26532C3.42498 4.50712 3.30399 4.49512 3.27899 4.73692L3.23197 5.21972C3.20697 5.46142 3.44897 5.48531 3.42597 5.72631L3.37799 6.20842C3.35399 6.44942 3.36198 6.45091 3.33798 6.69191C3.31398 6.93301 3.20799 6.92181 3.18399 7.16282C3.15999 7.40382 3.14498 7.40231 3.12098 7.64331C3.09698 7.88441 3.20198 7.89481 3.17898 8.13581C3.15498 8.37691 3.07098 8.36861 3.04698 8.60971C3.02298 8.85071 3.09498 8.85822 3.07098 9.09922C3.04698 9.34022 2.86198 9.32302 2.83798 9.56332C2.81398 9.80362 2.82497 9.80581 2.80097 10.0476C2.77697 10.2894 2.96998 10.3088 2.94598 10.5505C2.92298 10.7923 2.80898 10.7819 2.78498 11.0244C2.76098 11.2669 2.61498 11.2482 2.59098 11.4952C2.56698 11.7422 2.78998 11.7601 2.76698 12.0026C2.74298 12.2452 2.72898 12.2437 2.70498 12.4862C2.68198 12.7287 2.73599 12.7339 2.71199 12.9757C2.68799 13.2175 2.44098 13.1936 2.41398 13.4354C2.38598 13.6771 2.41397 13.6794 2.38697 13.9211C2.35997 14.1629 2.42298 14.1689 2.39898 14.4106C2.37598 14.6524 2.45498 14.6606 2.43098 14.9024C2.40598 15.1442 2.37098 15.1412 2.34698 15.3829C2.32298 15.6247 2.38898 15.6322 2.36498 15.8747C2.34098 16.1172 2.12598 16.0985 2.10198 16.3388C2.07898 16.5791 2.28297 16.6022 2.25797 16.8455C2.23397 17.0888 2.21398 17.0858 2.18998 17.329C2.16498 17.5723 1.95799 17.5529 1.93399 17.7932C1.90999 18.0334 1.94898 18.0394 1.92498 18.2819C1.90098 18.5244 1.95698 18.5297 1.93298 18.7722C1.90898 19.0147 2.00398 19.0244 1.97998 19.2669C1.95598 19.5094 1.95698 19.5094 1.93298 19.7527C1.90898 19.996 1.87598 19.993 1.85198 20.2362C1.82898 20.4795 1.86598 20.4825 1.84098 20.7257C1.81698 20.969 1.85998 20.9727 1.83598 21.2152C1.81198 21.4578 1.63998 21.4391 1.61598 21.6839C1.59098 21.9286 1.49097 21.9152 1.46697 22.1562C1.44197 22.3972 1.45298 22.398 1.42898 22.6397C1.40498 22.8815 1.45198 22.886 1.42898 23.1278C1.40598 23.3695 1.58598 23.3889 1.56198 23.6314C1.53798 23.874 1.59798 23.8814 1.57298 24.1247C1.54898 24.3679 1.51698 24.3642 1.49298 24.6075C1.46898 24.8507 1.49298 24.8522 1.47198 25.0947C1.45098 25.3373 1.21098 25.3141 1.18698 25.5574C1.16298 25.8007 1.11997 25.7969 1.09597 26.0409C1.07297 26.2849 1.34299 26.3118 1.31999 26.5551C1.29799 26.7983 1.07697 26.7789 1.05297 27.02C1.02897 27.261 1.23097 27.2849 1.20797 27.5289C1.18397 27.7729 1.08797 27.7632 1.06397 28.0072C1.03897 28.2512 1.11898 28.2586 1.09498 28.5027C1.07098 28.7467 1.00498 28.7392 0.980982 28.9825C0.956982 29.2257 0.915986 29.2227 0.890986 29.4675C0.866986 29.7122 0.941987 29.7197 0.916987 29.9645C0.892987 30.2092 0.883973 30.2092 0.858973 30.4547C0.833973 30.7002 0.908977 30.7107 0.878977 30.9554C0.852977 31.0897 0.778981 31.2203 0.760981 31.3576C0.742981 31.4949 0.661972 31.6225 0.651972 31.7606C0.642972 31.8986 0.719981 32.0359 0.719981 32.1747C0.719981 32.3419 0.630976 32.509 0.645976 32.6732C0.659976 32.8373 0.578975 33.0209 0.604975 33.1836C0.629975 33.3462 0.837987 33.4783 0.875987 33.6388C0.913987 33.7992 1.00998 33.9372 1.06098 34.0954C1.11098 34.2536 1.10498 34.4267 1.16798 34.579C1.23098 34.7312 1.22498 34.9177 1.29998 35.0647C1.37598 35.2117 1.38098 35.4072 1.46798 35.5475C1.55498 35.6878 1.73298 35.7766 1.82998 35.9102C1.92698 36.0438 1.99299 36.2087 2.09999 36.3355C2.20799 36.4624 2.41298 36.4989 2.52998 36.6161C2.64698 36.7333 2.72798 36.8885 2.85398 36.9959C2.97998 37.1034 3.15197 37.1504 3.28597 37.2481C3.41998 37.3459 3.55299 37.4347 3.69499 37.522C3.83699 37.6093 3.99398 37.6593 4.13798 37.7346C4.28298 37.81 4.38597 37.9802 4.53997 38.0443C4.69397 38.1085 4.83798 38.2077 4.99398 38.2592C5.14898 38.3107 5.35299 38.1988 5.51599 38.2376C5.67899 38.2764 5.82298 38.3637 5.98698 38.3868C6.15098 38.41 6.30998 38.448 6.47598 38.4615C6.64298 38.4749 6.80498 38.5443 6.97198 38.5443C7.13898 38.5443 7.31398 38.6025 7.47698 38.5898C7.64098 38.5771 7.82098 38.5764 7.98298 38.551C8.14598 38.5256 8.25098 38.201 8.41198 38.163C8.57198 38.1249 8.72997 38.113 8.88697 38.0622C9.04397 38.0115 9.27797 38.1674 9.42997 38.104C9.58297 38.0406 9.71798 37.9219 9.86498 37.8473C10.012 37.7727 10.059 37.5242 10.2 37.4377C10.341 37.3511 10.545 37.3698 10.679 37.272C10.812 37.1743 10.868 36.987 10.994 36.8795C11.121 36.7721 11.442 36.8713 11.556 36.7541C11.671 36.637 11.65 36.381 11.757 36.2572C11.865 36.1333 12.056 36.0714 12.156 35.9371C12.257 35.8027 12.28 35.6177 12.366 35.4759C12.453 35.3341 12.619 35.2349 12.695 35.0871C12.77 34.9394 12.61 34.6864 12.674 34.5327C12.737 34.379 12.842 34.2536 12.898 34.0954C12.953 33.9372 12.93 33.7723 12.968 33.6104C13.007 33.4485 13.267 33.3365 13.289 33.1724C13.312 33.0082 13.285 32.8358 13.298 32.6694C13.312 32.503 13.281 32.3336 13.281 32.1665Z" fill="#394CF5"/>
</svg>
